<?xml version="1.0" encoding="utf-8"?>
<!-- Generator: Adobe Illustrator 22.1.0, SVG Export Plug-In . SVG Version: 6.00 Build 0)  -->
<svg version="1.1" id="Capa_1" xmlns="http://www.w3.org/2000/svg" xmlns:xlink="http://www.w3.org/1999/xlink" x="0px" y="0px"
	 viewBox="0 0 500 500" style="enable-background:new 0 0 500 500;" xml:space="preserve">

  <g fill="none" stroke="none" stroke-width="3">

    <g fill="#f7df1e" stroke="#a3a3a3" stroke-width="5">
      <path d="M 325 250 L 400 250 C 474.8629 242.1476 448.6632 144.3689 379.9038 175 L 314.9519 212.5 Z" />
     <path d="M 314.9519 212.5 L 379.9038 175 C 440.8108 130.7682 369.2318 59.1892 325 120.0962 L 287.5 185.0481 Z" />
     <path d="M 287.5 185.0481 L 325 120.0962 C 355.6311 51.3368 257.8524 25.1371 250 100 L 250 175 Z" />
     <path d="M 250 175 L 250 100 C 242.1476 25.1371 144.3689 51.3368 175 120.0962 L 212.5 185.0481 Z" />
     <path d="M 212.5 185.0481 L 175 120.0962 C 130.7682 59.1892 59.1892 130.7682 120.0962 175 L 185.0481 212.5 Z" />
     <path d="M 185.0481 212.5 L 120.0962 175 C 51.3368 144.3689 25.1371 242.1476 100 250 L 175 250 Z" />
     <path d="M 175 250 L 100 250 C 25.1371 257.8524 51.3368 355.6311 120.0962 325 L 185.0481 287.5 Z" />
     <path d="M 185.0481 287.5 L 120.0962 325 C 59.1892 369.2318 130.7682 440.8108 175 379.9038 L 212.5 314.9519 Z" />
     <path d="M 212.5 314.9519 L 175 379.9038 C 144.3689 448.6632 242.1476 474.8629 250 400 L 250 325 Z" />
     <path d="M 250 325 L 250 400 C 257.8524 474.8629 355.6311 448.6632 325 379.9038 L 287.5 314.9519 Z" />
     <path d="M 287.5 314.9519 L 325 379.9038 C 369.2318 440.8108 440.8108 369.2318 379.9038 325 L 314.9519 287.5 Z" />
     <path d="M 314.9519 287.5 L 379.9038 325 C 448.6632 355.6311 474.8629 257.8524 400 250 L 325 250 Z" />
    </g>

    <g stroke="#737373" stroke-width="1">
      <path d="M 400 250 C 474.8629 242.1476 448.6632 144.3689 379.9038 175 C 440.8108 130.7682 369.2318 59.1892 325 120.0962 C 355.6311 51.3368 257.8524 25.1371 250 100 C 242.1476 25.1371 144.3689 51.3368 175 120.0962 C 130.7682 59.1892 59.1892 130.7682 120.0962 175 C 51.3368 144.3689 25.1371 242.1476 100 250 C 25.1371 257.8524 51.3368 355.6311 120.0962 325 C 59.1892 369.2318 130.7682 440.8108 175 379.9038 C 144.3689 448.6632 242.1476 474.8629 250 400 C 257.8524 474.8629 355.6311 448.6632 325 379.9038 C 369.2318 440.8108 440.8108 369.2318 379.9038 325 C 448.6632 355.6311 474.8629 257.8524 400 250 " />
    </g>
    

    <g stroke="#fafafa" stroke-width="15">
      <circle cx="250" cy="250" r="85" fill="#24C8DB" />
      <circle cx="250" cy="250" r="35" fill="#fb923c" />
    </g>

  </g>
  
</svg>